<svg width="285" height="54" viewBox="0 0 285 54" fill="none" xmlns="http://www.w3.org/2000/svg">
<g clip-path="url(#clip0_7_2)">
<path d="M158.769 21.7025C158.219 19.497 156.207 19.0906 154.725 19.0906C152.484 19.0939 150.668 20.3195 150.672 22.5546L150.685 25.3336V39.3502C150.685 39.4321 150.698 39.514 150.717 39.5894V40.0154C150.721 42.0768 152.425 44.5281 154.424 44.692C154.591 44.7051 154.761 44.7051 154.935 44.6985C157.16 44.6068 158.789 42.2341 158.783 39.999L158.76 34.2017V29.5153C158.799 29.2466 158.822 28.9844 158.822 28.7353L158.76 24.8289V23.7966C158.76 23.7639 158.753 23.7311 158.75 23.6983C158.773 23.0199 158.914 22.2629 158.773 21.7025H158.769ZM187.543 21.6697C187.006 19.4642 185.043 19.0578 183.597 19.0611C181.861 19.0644 180.392 19.8411 179.858 21.2732C179.655 21.8008 178.885 22.0204 178.406 21.6239C176.751 20.2605 174.706 19.4052 172.429 19.4052C166.923 19.3593 161.696 24.085 161.696 31.1015C161.696 38.1179 166.969 42.5684 172.429 42.5684C174.598 42.5684 176.601 41.7687 178.249 40.4644C178.724 40.0875 179.494 40.4021 179.494 41.0084C179.494 45.0918 177.338 46.1438 173.576 46.1438C173.455 46.1438 173.346 46.147 173.248 46.1569C171.626 45.9799 169.709 45.6424 169.709 45.6424C166.759 45.3835 164.872 46.5763 164.524 48.2969H164.528C164.498 48.4411 164.478 48.5885 164.465 48.7393C164.318 50.6794 167.428 51.9509 168.811 52.4261C170.194 52.9013 172.648 53.4322 174.461 53.2421C174.546 53.2323 174.615 53.2192 174.674 53.2028C183.843 52.9832 187.566 49.0244 187.566 40.6905C187.566 38.1212 187.609 29.2663 187.612 22.938C187.612 22.8102 187.605 22.6791 187.596 22.548C187.612 22.2301 187.609 21.9286 187.546 21.6665L187.543 21.6697ZM174.857 35.6469C172.334 35.6469 170.223 33.7199 170.223 31.1048C170.223 28.4896 172.288 26.4249 174.857 26.4249C177.427 26.4249 179.583 28.4896 179.583 31.1048C179.583 33.7199 177.381 35.6469 174.857 35.6469ZM120.269 33.6741V28.1684C120.269 22.8921 117.057 19.6838 112.519 19.6838C109.648 19.6838 107.708 20.9946 106.498 22.3612C105.948 22.9872 104.768 22.938 104.247 22.2924C102.89 20.6145 100.878 19.6838 98.5741 19.6838C96.4177 19.6838 94.7431 20.5686 93.5338 21.6501C93.0095 22.1187 91.987 21.8565 91.7772 21.2339C91.7707 21.2142 91.7412 21.1749 91.6953 21.129C91.5577 20.8373 91.3742 20.5784 91.1579 20.3458C91.1415 20.3064 91.1185 20.2769 91.0792 20.2605C90.332 19.5101 89.2014 19.0939 87.9364 19.0939C85.6948 19.0971 83.8792 20.3228 83.8825 22.5579L83.8923 24.865V33.6675C83.8923 33.7363 83.8825 33.8019 83.8825 33.8707L83.8923 36.1778V36.2958C83.8923 36.2958 83.8923 36.2991 83.8923 36.3024L83.9087 40.0711C83.9087 42.1325 85.6292 44.5838 87.6382 44.751C87.8053 44.7641 87.979 44.7641 88.1527 44.7575C90.391 44.6658 92.0329 42.2931 92.0263 40.058L92.0099 35.9583V30.2429C92.0099 28.27 93.1569 26.8477 95.0839 26.8477C96.9192 26.8477 97.9744 27.9947 97.9744 30.6558V33.8478C97.9744 33.8478 97.9744 33.8609 97.9744 33.8707V34.1165V36.2958C97.9744 36.3286 97.981 36.3614 97.9842 36.3941L98.0006 40.0679C98.0006 42.1292 99.7211 44.5805 101.733 44.7477C101.9 44.7608 102.074 44.7608 102.248 44.7542C104.486 44.6625 106.128 42.2898 106.121 40.0547L106.095 33.9985V30.6591C106.095 27.8145 107.609 26.851 109.215 26.851C111.05 26.851 112.106 27.998 112.106 30.6591V33.6446C112.102 33.7199 112.096 33.7953 112.096 33.8707L112.122 40.0679C112.122 42.1292 113.856 44.5838 115.884 44.7477C116.055 44.7608 116.228 44.7608 116.402 44.7542C118.66 44.6625 120.312 42.2898 120.305 40.0547L120.279 33.8576C120.279 33.7986 120.272 33.7429 120.269 33.6839V33.6741ZM215.986 38.2392C216.477 39.8548 214.436 41.2837 213.381 41.9555C212.447 42.5487 210.569 43.6597 209.084 44.0398C207.737 44.4822 206.233 44.7575 204.545 44.7575C195.326 44.7575 190.096 39.4649 190.096 31.9699C190.096 24.475 195.372 19.1824 203.215 19.1824C210.28 19.1824 215.645 24.5668 215.645 32.0617V33.3529C215.645 33.9067 215.206 34.3557 214.662 34.3557H199.656C199.017 34.3557 198.541 34.9784 198.833 35.5585C199.816 37.5182 201.871 38.3834 204.775 38.3834C205.338 38.3834 205.869 38.4096 206.371 38.4391C207.99 38.3703 210.244 37.066 211.054 36.6366C213.449 35.8436 215.242 36.4892 215.855 37.8754C215.907 37.9901 215.953 38.1147 215.989 38.2392H215.986ZM198.194 29.4367H206.072C206.725 29.4367 207.2 28.7943 206.898 28.2044C206.095 26.6379 204.699 25.7826 202.736 25.7826C200.308 25.7826 198.836 27.0935 198.194 29.4334V29.4367ZM154.568 8.42664C152.055 8.42991 150.019 10.0816 150.023 12.1135L150.052 12.3855C150.052 14.26 151.979 17.2947 154.234 17.4422C154.421 17.452 154.617 17.4553 154.811 17.4487C157.321 17.3635 159.159 14.4042 159.156 12.3724L159.127 12.1004C159.12 10.0685 157.082 8.42664 154.568 8.42664ZM261.241 23.4066C261.175 21.8893 259.333 20.6997 257.577 20.2704L257.583 20.231C257.039 20.231 256.6 19.7919 256.6 19.2479V13.7848C256.6 13.7848 256.597 13.7619 256.597 13.7488C256.603 13.6832 256.61 13.6144 256.61 13.5456C256.61 11.9234 254.791 10.606 252.549 10.606C250.308 10.606 248.489 11.9234 248.489 13.5456C248.489 13.5554 248.489 13.5685 248.489 13.5784C248.479 13.6308 248.476 13.6832 248.476 13.7357V19.2479C248.476 19.7919 248.037 20.231 247.493 20.231V20.254C245.743 20.6505 243.698 21.8926 243.577 23.3083H243.58C243.567 23.4525 243.563 23.6 243.57 23.7475C243.639 25.3369 245.664 26.5724 247.493 26.9394V27.0214C248.037 27.0214 248.476 27.4605 248.476 28.0045V33.2153C248.446 33.4086 248.427 33.6085 248.427 33.8117L248.453 40.0089C248.453 42.0702 250.183 44.5248 252.205 44.6887C252.372 44.7018 252.549 44.7018 252.723 44.6952C254.975 44.6035 256.623 42.2308 256.62 39.9958L256.593 34.1132V27.0181C258.442 26.851 261.087 25.4582 261.227 23.8425H261.224C261.237 23.6983 261.241 23.5508 261.234 23.4034L261.241 23.4066ZM62.6365 7.84985C51.9004 7.84985 43.5993 15.9216 43.5993 26.0153C43.5993 36.109 51.9955 44.2725 62.6365 44.2725C73.2775 44.2725 81.6278 36.109 81.6278 26.0153C81.6278 15.9674 73.3693 7.84985 62.6365 7.84985ZM62.6365 36.1057C56.8556 36.1057 52.5428 31.6553 52.5428 26.0579C52.5428 20.4605 56.9473 16.01 62.6365 16.01C68.3257 16.01 72.6811 20.4605 72.6811 26.0579C72.6811 31.6553 68.4142 36.1057 62.6365 36.1057ZM147.106 28.1717C147.106 22.8987 143.481 19.687 138.988 19.687C136.435 19.687 134.427 20.5948 133.001 21.6861C132.581 22.0073 131.949 21.8893 131.628 21.5288C131.572 21.4469 131.52 21.3617 131.467 21.2732C131.467 21.2732 131.467 21.2732 131.467 21.2699C130.887 20.2966 130.366 19.1004 127.767 19.0939C125.526 19.0971 123.71 20.3228 123.713 22.5579V23.1903V36.2925C123.713 36.3417 123.72 36.3876 123.727 36.4335L123.743 40.0613C123.743 42.1227 125.47 44.5773 127.489 44.7411C127.656 44.7542 127.83 44.7542 128.003 44.7477C130.251 44.6559 131.897 42.2832 131.89 40.0482L131.874 36.2925C131.874 36.2925 131.874 36.2893 131.874 36.286V30.233C131.874 28.2602 133.663 26.8837 135.498 26.8837C137.517 26.8837 138.985 27.939 138.985 30.6459V36.286C138.985 36.3253 138.992 36.3646 138.998 36.404L139.015 40.058C139.015 42.1194 140.732 44.5707 142.741 44.7378C142.908 44.751 143.082 44.751 143.255 44.7444C145.49 44.6526 147.129 42.28 147.126 40.0449L147.109 36.0533V28.1684L147.106 28.1717ZM242.174 28.1717C242.174 22.8987 238.549 19.687 234.056 19.687C231.503 19.687 229.494 20.5948 228.069 21.6861C227.489 22.1318 226.489 21.7451 226.489 21.011C226.489 20.9225 226.339 20.621 226.119 20.4211C225.378 19.5756 224.185 19.0939 222.832 19.0939C220.59 19.0971 218.775 20.3228 218.778 22.5579V23.1903V36.2925C218.778 36.3417 218.785 36.3876 218.791 36.4335L218.808 40.0613C218.808 42.1227 220.535 44.5773 222.553 44.7411C222.72 44.7542 222.894 44.7542 223.068 44.7477C225.316 44.6559 226.961 42.2832 226.955 40.0482L226.938 36.2925C226.938 36.2925 226.938 36.2893 226.938 36.286V30.233C226.938 28.2602 228.728 26.8837 230.563 26.8837C232.582 26.8837 234.05 27.939 234.05 30.6459V36.286C234.05 36.3253 234.056 36.3646 234.063 36.404L234.079 40.058C234.079 42.1194 235.796 44.5707 237.805 44.7378C237.973 44.751 238.146 44.751 238.32 44.7444C240.555 44.6526 242.194 42.28 242.19 40.0449L242.174 36.0533V28.1684V28.1717Z" fill="black"/>
<mask id="mask0_7_2" style="mask-type:luminance" maskUnits="userSpaceOnUse" x="0" y="0" width="39" height="43">
<path d="M39 0.456909H0V42.2426H39V0.456909Z" fill="white"/>
</mask>
<g mask="url(#mask0_7_2)">
<path d="M36.5361 32.149C36.0853 29.9889 36.387 27.7108 37.5139 25.8106C38.3877 24.337 38.8696 22.4091 38.8696 19.8918C38.8696 9.15663 30.1664 0.456909 19.4348 0.456909C8.70319 0.456909 0 9.15663 0 19.8918C0 22.4126 0.48197 24.337 1.35576 25.8106C2.45839 27.6692 2.77393 29.8987 2.37517 32.0242C2.31969 32.3259 2.27462 32.5582 2.24341 32.683C1.38003 36.4798 0.92233 38.3314 1.23093 39.4687C1.49792 40.4465 2.13939 41.1955 3.04092 41.5769C3.46047 41.7538 3.91123 41.8439 4.37587 41.8439C5.02774 41.8439 5.70388 41.6671 6.34189 41.3203C7.27809 40.8106 9.09154 38.3176 10.8911 35.5783C11.1546 37.9153 11.5083 39.9195 11.9487 40.6303C12.4965 41.5214 13.3495 42.0832 14.3481 42.2115C14.4868 42.2288 14.6255 42.2392 14.7642 42.2392C15.7004 42.2392 16.6366 41.8474 17.3786 41.1262C17.9577 40.5644 18.6859 38.7961 19.4348 36.5318C20.1838 38.7926 20.9085 40.5644 21.491 41.1262C22.2365 41.8439 23.1692 42.2392 24.1054 42.2392C24.2441 42.2392 24.3828 42.2323 24.5215 42.2115C25.5201 42.0866 26.3731 41.5249 26.9209 40.6303C27.3613 39.916 27.715 37.9153 27.9785 35.5748C29.7781 38.3141 31.5915 40.8072 32.5277 41.3169C33.1623 41.6636 33.8384 41.8404 34.4938 41.8404C34.9584 41.8404 35.4092 41.7538 35.8287 41.5735C36.7268 41.1886 37.3717 40.4396 37.6387 39.4653C37.9508 38.328 37.4272 36.0533 36.5638 32.26C36.5569 32.2288 36.5465 32.1907 36.5395 32.1456L36.5361 32.149Z" fill="#F43BA6"/>
<path d="M17.018 27.1212C18.3738 28.5914 20.8703 28.5567 21.8516 27.0588" stroke="black" stroke-width="1.38696" stroke-miterlimit="10" stroke-linecap="round"/>
<path d="M28.086 29.6317C29.3652 29.6317 30.4022 29.0511 30.4022 28.3349C30.4022 27.6187 29.3652 27.0381 28.086 27.0381C26.8068 27.0381 25.7698 27.6187 25.7698 28.3349C25.7698 29.0511 26.8068 29.6317 28.086 29.6317Z" fill="#FF75C3"/>
<path d="M10.7836 29.6317C12.0629 29.6317 13.0999 29.0511 13.0999 28.3349C13.0999 27.6187 12.0629 27.0381 10.7836 27.0381C9.50442 27.0381 8.46741 27.6187 8.46741 28.3349C8.46741 29.0511 9.50442 29.6317 10.7836 29.6317Z" fill="#FF75C3"/>
<path d="M10.0485 26.2406C13.4726 26.2406 16.2483 23.4649 16.2483 20.0409C16.2483 16.6169 13.4726 13.8411 10.0485 13.8411C6.62453 13.8411 3.84882 16.6169 3.84882 20.0409C3.84882 23.4649 6.62453 26.2406 10.0485 26.2406Z" fill="white"/>
<path d="M10.0485 24.8744C12.718 24.8744 14.8821 22.7104 14.8821 20.0409C14.8821 17.3714 12.718 15.2073 10.0485 15.2073C7.37903 15.2073 5.21497 17.3714 5.21497 20.0409C5.21497 22.7104 7.37903 24.8744 10.0485 24.8744Z" fill="black"/>
<path d="M6.17198 20.3356C6.93032 20.3356 7.54507 19.7208 7.54507 18.9625C7.54507 18.2042 6.93032 17.5894 6.17198 17.5894C5.41364 17.5894 4.79889 18.2042 4.79889 18.9625C4.79889 19.7208 5.41364 20.3356 6.17198 20.3356Z" fill="white"/>
<path d="M8.78641 21.7676C9.30537 21.7676 9.72607 21.3469 9.72607 20.828C9.72607 20.309 9.30537 19.8883 8.78641 19.8883C8.26744 19.8883 7.84674 20.309 7.84674 20.828C7.84674 21.3469 8.26744 21.7676 8.78641 21.7676Z" fill="white"/>
<path d="M28.8211 26.2406C32.2451 26.2406 35.0208 23.4649 35.0208 20.0409C35.0208 16.6169 32.2451 13.8411 28.8211 13.8411C25.397 13.8411 22.6213 16.6169 22.6213 20.0409C22.6213 23.4649 25.397 26.2406 28.8211 26.2406Z" fill="white"/>
<path d="M28.8211 24.8744C31.4906 24.8744 33.6546 22.7104 33.6546 20.0409C33.6546 17.3714 31.4906 15.2073 28.8211 15.2073C26.1515 15.2073 23.9875 17.3714 23.9875 20.0409C23.9875 22.7104 26.1515 24.8744 28.8211 24.8744Z" fill="black"/>
<path d="M24.9445 20.3356C25.7028 20.3356 26.3176 19.7208 26.3176 18.9625C26.3176 18.2042 25.7028 17.5894 24.9445 17.5894C24.1862 17.5894 23.5714 18.2042 23.5714 18.9625C23.5714 19.7208 24.1862 20.3356 24.9445 20.3356Z" fill="white"/>
<path d="M27.5555 21.7676C28.0744 21.7676 28.4951 21.3469 28.4951 20.828C28.4951 20.309 28.0744 19.8883 27.5555 19.8883C27.0365 19.8883 26.6158 20.309 26.6158 20.828C26.6158 21.3469 27.0365 21.7676 27.5555 21.7676Z" fill="white"/>
</g>
</g>
<defs>
<clipPath id="clip0_7_2">
<rect width="285" height="54" fill="white"/>
</clipPath>
</defs>
</svg>
