<svg width="285" height="54" viewBox="0 0 285 54" fill="none" xmlns="http://www.w3.org/2000/svg">
<path transform="translate(0 4.2505)" d="M158.769 17.452C158.219 15.2465 156.207 14.8401 154.725 14.8401C152.484 14.8434 150.668 16.069 150.672 18.3041L150.685 21.0831V35.0997C150.685 35.1816 150.698 35.2635 150.717 35.3389V35.7649C150.721 37.8263 152.425 40.2776 154.424 40.4415C154.591 40.4546 154.761 40.4546 154.935 40.448C157.16 40.3563 158.789 37.9836 158.783 35.7485L158.76 29.9512V25.2648C158.799 24.9961 158.822 24.7339 158.822 24.4848L158.76 20.5784V19.5461C158.76 19.5134 158.753 19.4806 158.75 19.4478C158.773 18.7694 158.914 18.0124 158.773 17.452H158.769ZM187.543 17.4192C187.006 15.2137 185.043 14.8073 183.597 14.8106C181.861 14.8139 180.392 15.5906 179.858 17.0227C179.655 17.5503 178.885 17.7699 178.406 17.3734C176.751 16.01 174.706 15.1547 172.429 15.1547C166.923 15.1088 161.696 19.8345 161.696 26.851C161.696 33.8674 166.969 38.3179 172.429 38.3179C174.598 38.3179 176.601 37.5182 178.249 36.2139C178.724 35.837 179.494 36.1516 179.494 36.7579C179.494 40.8413 177.338 41.8933 173.576 41.8933C173.455 41.8933 173.346 41.8965 173.248 41.9064C171.626 41.7294 169.709 41.3919 169.709 41.3919C166.759 41.133 164.872 42.3259 164.524 44.0464H164.528C164.498 44.1906 164.478 44.338 164.465 44.4888C164.318 46.4289 167.428 47.7004 168.811 48.1756C170.194 48.6508 172.648 49.1817 174.461 48.9916C174.546 48.9818 174.615 48.9687 174.674 48.9523C183.843 48.7327 187.566 44.7739 187.566 36.44C187.566 33.8707 187.609 25.0158 187.612 18.6875C187.612 18.5597 187.605 18.4286 187.596 18.2975C187.612 17.9796 187.609 17.6781 187.546 17.416L187.543 17.4192ZM174.857 31.3964C172.334 31.3964 170.223 29.4694 170.223 26.8543C170.223 24.2391 172.288 22.1744 174.857 22.1744C177.427 22.1744 179.583 24.2391 179.583 26.8543C179.583 29.4694 177.381 31.3964 174.857 31.3964ZM120.269 29.4236V23.9179C120.269 18.6416 117.057 15.4333 112.519 15.4333C109.648 15.4333 107.708 16.7441 106.498 18.1107C105.948 18.7367 104.768 18.6875 104.247 18.0419C102.89 16.364 100.878 15.4333 98.5741 15.4333C96.4177 15.4333 94.7431 16.3181 93.5338 17.3996C93.0095 17.8682 91.987 17.606 91.7772 16.9834C91.7707 16.9637 91.7412 16.9244 91.6953 16.8785C91.5577 16.5868 91.3742 16.3279 91.1579 16.0953C91.1415 16.0559 91.1185 16.0264 91.0792 16.01C90.332 15.2596 89.2014 14.8434 87.9364 14.8434C85.6948 14.8466 83.8792 16.0723 83.8825 18.3074L83.8923 20.6145V29.417C83.8923 29.4858 83.8825 29.5514 83.8825 29.6202L83.8923 31.9273V32.0453C83.8923 32.0453 83.8923 32.0486 83.8923 32.0519L83.9087 35.8206C83.9087 37.882 85.6292 40.3333 87.6382 40.5005C87.8053 40.5136 87.979 40.5136 88.1527 40.507C90.391 40.4153 92.0329 38.0426 92.0263 35.8075L92.0099 31.7078V25.9924C92.0099 24.0195 93.1569 22.5972 95.0839 22.5972C96.9192 22.5972 97.9744 23.7442 97.9744 26.4053V29.5973C97.9744 29.5973 97.9744 29.6104 97.9744 29.6202V29.866V32.0453C97.9744 32.0781 97.981 32.1109 97.9842 32.1436L98.0006 35.8174C98.0006 37.8787 99.7211 40.33 101.733 40.4972C101.9 40.5103 102.074 40.5103 102.248 40.5037C104.486 40.412 106.128 38.0393 106.121 35.8042L106.095 29.748V26.4086C106.095 23.564 107.609 22.6005 109.215 22.6005C111.05 22.6005 112.106 23.7475 112.106 26.4086V29.3941C112.102 29.4694 112.096 29.5448 112.096 29.6202L112.122 35.8174C112.122 37.8787 113.856 40.3333 115.884 40.4972C116.055 40.5103 116.228 40.5103 116.402 40.5037C118.66 40.412 120.312 38.0393 120.305 35.8042L120.279 29.6071C120.279 29.5481 120.272 29.4924 120.269 29.4334V29.4236ZM215.986 33.9887C216.477 35.6043 214.436 37.0332 213.381 37.705C212.447 38.2982 210.569 39.4092 209.084 39.7893C207.737 40.2317 206.233 40.507 204.545 40.507C195.326 40.507 190.096 35.2144 190.096 27.7194C190.096 20.2245 195.372 14.9319 203.215 14.9319C210.28 14.9319 215.645 20.3163 215.645 27.8112V29.1024C215.645 29.6562 215.206 30.1052 214.662 30.1052H199.656C199.017 30.1052 198.541 30.7279 198.833 31.308C199.816 33.2677 201.871 34.1329 204.775 34.1329C205.338 34.1329 205.869 34.1591 206.371 34.1886C207.99 34.1198 210.244 32.8155 211.054 32.3861C213.449 31.5931 215.242 32.2387 215.855 33.6249C215.907 33.7396 215.953 33.8642 215.989 33.9887H215.986ZM198.194 25.1862H206.072C206.725 25.1862 207.2 24.5438 206.898 23.9539C206.095 22.3875 204.699 21.5321 202.736 21.5321C200.308 21.5321 198.836 22.843 198.194 25.1829V25.1862ZM154.568 4.17616C152.055 4.17943 150.019 5.83114 150.023 7.86299L150.052 8.13499C150.052 10.0095 151.979 13.0442 154.234 13.1917C154.421 13.2015 154.617 13.2048 154.811 13.1982C157.321 13.113 159.159 10.1537 159.156 8.12188L159.127 7.84988C159.12 5.81803 157.082 4.17616 154.568 4.17616ZM261.241 19.1561C261.175 17.6388 259.333 16.4492 257.577 16.0199L257.583 15.9806C257.039 15.9806 256.6 15.5414 256.6 14.9974V9.53436C256.6 9.53436 256.597 9.51141 256.597 9.4983C256.603 9.43275 256.61 9.36393 256.61 9.29511C256.61 7.6729 254.791 6.35549 252.549 6.35549C250.308 6.35549 248.489 7.6729 248.489 9.29511C248.489 9.30494 248.489 9.31806 248.489 9.32789C248.479 9.38033 248.476 9.43276 248.476 9.4852V14.9974C248.476 15.5414 248.037 15.9806 247.493 15.9806V16.0035C245.743 16.4 243.698 17.6421 243.577 19.0578H243.58C243.567 19.202 243.563 19.3495 243.57 19.497C243.639 21.0864 245.664 22.3219 247.493 22.689V22.7709C248.037 22.7709 248.476 23.21 248.476 23.754V28.9648C248.446 29.1581 248.427 29.358 248.427 29.5612L248.453 35.7584C248.453 37.8197 250.183 40.2743 252.205 40.4382C252.372 40.4513 252.549 40.4513 252.723 40.4447C254.975 40.353 256.623 37.9803 256.62 35.7453L256.593 29.8627V22.7676C258.442 22.6005 261.087 21.2077 261.227 19.592H261.224C261.237 19.4478 261.241 19.3003 261.234 19.1529L261.241 19.1561ZM62.6365 3.59937C51.9004 3.59937 43.5993 11.6711 43.5993 21.7648C43.5993 31.8585 51.9955 40.022 62.6365 40.022C73.2775 40.022 81.6278 31.8585 81.6278 21.7648C81.6278 11.7169 73.3693 3.59937 62.6365 3.59937ZM62.6365 31.8552C56.8556 31.8552 52.5428 27.4048 52.5428 21.8074C52.5428 16.21 56.9473 11.7595 62.6365 11.7595C68.3257 11.7595 72.6811 16.21 72.6811 21.8074C72.6811 27.4048 68.4142 31.8552 62.6365 31.8552ZM147.106 23.9212C147.106 18.6482 143.481 15.4365 138.988 15.4365C136.435 15.4365 134.427 16.3443 133.001 17.4356C132.581 17.7568 131.949 17.6388 131.628 17.2783C131.572 17.1964 131.52 17.1112 131.467 17.0227C131.467 17.0227 131.467 17.0227 131.467 17.0194C130.887 16.0461 130.366 14.8499 127.767 14.8434C125.526 14.8466 123.71 16.0723 123.713 18.3074V18.9399V32.042C123.713 32.0912 123.72 32.1371 123.727 32.183L123.743 35.8108C123.743 37.8722 125.47 40.3268 127.489 40.4906C127.656 40.5037 127.83 40.5037 128.003 40.4972C130.251 40.4054 131.897 38.0327 131.89 35.7977L131.874 32.042C131.874 32.042 131.874 32.0388 131.874 32.0355V25.9825C131.874 24.0097 133.663 22.6332 135.498 22.6332C137.517 22.6332 138.985 23.6885 138.985 26.3954V32.0355C138.985 32.0748 138.992 32.1141 138.998 32.1535L139.015 35.8075C139.015 37.8689 140.732 40.3202 142.741 40.4873C142.908 40.5005 143.082 40.5005 143.255 40.4939C145.49 40.4021 147.129 38.0295 147.126 35.7944L147.109 31.8028V23.9179L147.106 23.9212ZM242.174 23.9212C242.174 18.6482 238.549 15.4365 234.056 15.4365C231.503 15.4365 229.494 16.3443 228.069 17.4356C227.489 17.8813 226.489 17.4946 226.489 16.7605C226.489 16.672 226.339 16.3705 226.119 16.1706C225.378 15.3251 224.185 14.8434 222.832 14.8434C220.59 14.8466 218.775 16.0723 218.778 18.3074V18.9399V32.042C218.778 32.0912 218.785 32.1371 218.791 32.183L218.808 35.8108C218.808 37.8722 220.535 40.3268 222.553 40.4906C222.72 40.5037 222.894 40.5037 223.068 40.4972C225.316 40.4054 226.961 38.0327 226.955 35.7977L226.938 32.042C226.938 32.042 226.938 32.0388 226.938 32.0355V25.9825C226.938 24.0097 228.728 22.6332 230.563 22.6332C232.582 22.6332 234.05 23.6885 234.05 26.3954V32.0355C234.05 32.0748 234.056 32.1141 234.063 32.1535L234.079 35.8075C234.079 37.8689 235.796 40.3202 237.805 40.4873C237.973 40.5005 238.146 40.5005 238.32 40.4939C240.555 40.4021 242.194 38.0295 242.19 35.7944L242.174 31.8028V23.9179V23.9212Z" fill="white"/>
<mask id="mask0_7_20" style="mask-type:luminance" maskUnits="userSpaceOnUse" x="0" y="0" width="39" height="43">
<path d="M39 0.456909H0V42.2426H39V0.456909Z" fill="white"/>
</mask>
<g mask="url(#mask0_7_20)">
<path d="M36.5361 32.1491C36.0853 29.9889 36.387 27.7108 37.5139 25.8106C38.3877 24.337 38.8696 22.4091 38.8696 19.8918C38.8696 9.15663 30.1664 0.456909 19.4348 0.456909C8.70319 0.456909 0 9.15663 0 19.8918C0 22.4126 0.48197 24.337 1.35576 25.8106C2.45839 27.6692 2.77393 29.8987 2.37517 32.0242C2.31969 32.3259 2.27462 32.5582 2.24341 32.683C1.38003 36.4798 0.92233 38.3314 1.23093 39.4687C1.49792 40.4466 2.13939 41.1955 3.04092 41.5769C3.46047 41.7538 3.91123 41.8439 4.37587 41.8439C5.02774 41.8439 5.70388 41.6671 6.34189 41.3203C7.27809 40.8106 9.09154 38.3176 10.8911 35.5783C11.1546 37.9153 11.5083 39.9195 11.9487 40.6303C12.4965 41.5214 13.3495 42.0832 14.3481 42.2115C14.4868 42.2288 14.6255 42.2392 14.7642 42.2392C15.7004 42.2392 16.6366 41.8474 17.3786 41.1262C17.9577 40.5644 18.6859 38.7961 19.4348 36.5319C20.1838 38.7926 20.9085 40.5644 21.491 41.1262C22.2365 41.8439 23.1692 42.2392 24.1054 42.2392C24.2441 42.2392 24.3828 42.2323 24.5215 42.2115C25.5201 42.0866 26.3731 41.5249 26.9209 40.6303C27.3613 39.916 27.715 37.9153 27.9785 35.5748C29.7781 38.3141 31.5915 40.8072 32.5277 41.3169C33.1623 41.6636 33.8384 41.8404 34.4938 41.8404C34.9584 41.8404 35.4092 41.7538 35.8287 41.5735C36.7268 41.1886 37.3717 40.4396 37.6387 39.4653C37.9508 38.328 37.4272 36.0533 36.5638 32.26C36.5569 32.2288 36.5465 32.1907 36.5395 32.1456L36.5361 32.1491Z" fill="#F43BA6"/>
<path d="M17.018 27.1212C18.3738 28.5914 20.8703 28.5567 21.8516 27.0588" stroke="black" stroke-width="1.38696" stroke-miterlimit="10" stroke-linecap="round"/>
<path d="M28.086 29.6317C29.3652 29.6317 30.4022 29.0511 30.4022 28.3349C30.4022 27.6187 29.3652 27.0381 28.086 27.0381C26.8068 27.0381 25.7698 27.6187 25.7698 28.3349C25.7698 29.0511 26.8068 29.6317 28.086 29.6317Z" fill="#FF75C3"/>
<path d="M10.7836 29.6317C12.0629 29.6317 13.0999 29.0511 13.0999 28.3349C13.0999 27.6187 12.0629 27.0381 10.7836 27.0381C9.50442 27.0381 8.46741 27.6187 8.46741 28.3349C8.46741 29.0511 9.50442 29.6317 10.7836 29.6317Z" fill="#FF75C3"/>
<path d="M10.0485 26.2406C13.4726 26.2406 16.2483 23.4649 16.2483 20.0409C16.2483 16.6169 13.4726 13.8411 10.0485 13.8411C6.62453 13.8411 3.84882 16.6169 3.84882 20.0409C3.84882 23.4649 6.62453 26.2406 10.0485 26.2406Z" fill="white"/>
<path d="M10.0485 24.8744C12.718 24.8744 14.8821 22.7104 14.8821 20.0409C14.8821 17.3714 12.718 15.2073 10.0485 15.2073C7.37903 15.2073 5.21497 17.3714 5.21497 20.0409C5.21497 22.7104 7.37903 24.8744 10.0485 24.8744Z" fill="black"/>
<path d="M6.17198 20.3356C6.93032 20.3356 7.54507 19.7208 7.54507 18.9625C7.54507 18.2042 6.93032 17.5894 6.17198 17.5894C5.41364 17.5894 4.79889 18.2042 4.79889 18.9625C4.79889 19.7208 5.41364 20.3356 6.17198 20.3356Z" fill="white"/>
<path d="M8.78641 21.7676C9.30537 21.7676 9.72607 21.3469 9.72607 20.828C9.72607 20.309 9.30537 19.8883 8.78641 19.8883C8.26744 19.8883 7.84674 20.309 7.84674 20.828C7.84674 21.3469 8.26744 21.7676 8.78641 21.7676Z" fill="white"/>
<path d="M28.8211 26.2406C32.2451 26.2406 35.0208 23.4649 35.0208 20.0409C35.0208 16.6169 32.2451 13.8411 28.8211 13.8411C25.397 13.8411 22.6213 16.6169 22.6213 20.0409C22.6213 23.4649 25.397 26.2406 28.8211 26.2406Z" fill="white"/>
<path d="M28.8211 24.8744C31.4906 24.8744 33.6546 22.7104 33.6546 20.0409C33.6546 17.3714 31.4906 15.2073 28.8211 15.2073C26.1515 15.2073 23.9875 17.3714 23.9875 20.0409C23.9875 22.7104 26.1515 24.8744 28.8211 24.8744Z" fill="black"/>
<path d="M24.9445 20.3356C25.7028 20.3356 26.3176 19.7208 26.3176 18.9625C26.3176 18.2042 25.7028 17.5894 24.9445 17.5894C24.1862 17.5894 23.5714 18.2042 23.5714 18.9625C23.5714 19.7208 24.1862 20.3356 24.9445 20.3356Z" fill="white"/>
<path d="M27.5555 21.7676C28.0744 21.7676 28.4951 21.3469 28.4951 20.828C28.4951 20.309 28.0744 19.8883 27.5555 19.8883C27.0365 19.8883 26.6158 20.309 26.6158 20.828C26.6158 21.3469 27.0365 21.7676 27.5555 21.7676Z" fill="white"/>
</g>
</svg>
